name rise42.5664peak47.7979fall81.9185.mot
datacolumns 19
datarows 12
range 8.36330200000000 8.38163700000000
endheader
time	ground_force1_vx	ground_force1_vy	ground_force1_vz	ground_force1_px	ground_force1_py	ground_force1_pz	ground_force2_vx	ground_force2_vy	ground_force2_vz	ground_force2_px	ground_force2_py	ground_force2_pz	ground_torque1_x	ground_torque1_y	ground_torque1_z	ground_torque2_x	ground_torque2_y	ground_torque2_z	
8.36330200000000	46.13628100000000	780.41118100000006	59.93177500000000	0.26935400000000	0.00000000000000	0.11773000000000	0.00000000000000	0.00000000000000	0.00000000000000	0.00000000000000	0.00000000000000	0.00000000000000	0.00000000000000	20.50581400000000	0.00000000000000	0.00000000000000	0.00000000000000	0.00000000000000	
8.36497100000000	45.51870400000000	783.02634399999999	59.99107000000000	0.26847300000000	0.00000000000000	0.11771900000000	0.00000000000000	0.00000000000000	0.00000000000000	0.00000000000000	0.00000000000000	0.00000000000000	0.00000000000000	20.55302700000000	0.00000000000000	0.00000000000000	0.00000000000000	0.00000000000000	
8.36663400000000	44.90932700000000	785.49392899999998	60.03489100000000	0.26762100000000	0.00000000000000	0.11770700000000	0.00000000000000	0.00000000000000	0.00000000000000	0.00000000000000	0.00000000000000	0.00000000000000	0.00000000000000	20.59269900000000	0.00000000000000	0.00000000000000	0.00000000000000	0.00000000000000	
8.36829700000000	44.30866700000000	787.81224999999995	60.06342700000000	0.26679700000000	0.00000000000000	0.11769400000000	0.00000000000000	0.00000000000000	0.00000000000000	0.00000000000000	0.00000000000000	0.00000000000000	0.00000000000000	20.62484400000000	0.00000000000000	0.00000000000000	0.00000000000000	0.00000000000000	
8.36996500000000	43.71715400000000	789.97980900000005	60.07686900000000	0.26600100000000	0.00000000000000	0.11768000000000	0.00000000000000	0.00000000000000	0.00000000000000	0.00000000000000	0.00000000000000	0.00000000000000	0.00000000000000	20.64948100000000	0.00000000000000	0.00000000000000	0.00000000000000	0.00000000000000	
8.37163600000000	43.13513000000000	791.99530600000003	60.07541100000000	0.26523100000000	0.00000000000000	0.11766400000000	0.00000000000000	0.00000000000000	0.00000000000000	0.00000000000000	0.00000000000000	0.00000000000000	0.00000000000000	20.66663400000000	0.00000000000000	0.00000000000000	0.00000000000000	0.00000000000000	
8.37329700000000	42.56285300000000	793.85765000000004	60.05925600000000	0.26448500000000	0.00000000000000	0.11764800000000	0.00000000000000	0.00000000000000	0.00000000000000	0.00000000000000	0.00000000000000	0.00000000000000	0.00000000000000	20.67633300000000	0.00000000000000	0.00000000000000	0.00000000000000	0.00000000000000	
8.37497200000000	42.00050200000000	795.56597399999998	60.02861000000000	0.26376200000000	0.00000000000000	0.11763000000000	0.00000000000000	0.00000000000000	0.00000000000000	0.00000000000000	0.00000000000000	0.00000000000000	0.00000000000000	20.67861500000000	0.00000000000000	0.00000000000000	0.00000000000000	0.00000000000000	
8.37663200000000	41.44817800000000	797.11964000000000	59.98369300000000	0.26306000000000	0.00000000000000	0.11761200000000	0.00000000000000	0.00000000000000	0.00000000000000	0.00000000000000	0.00000000000000	0.00000000000000	0.00000000000000	20.67352600000000	0.00000000000000	0.00000000000000	0.00000000000000	0.00000000000000	
8.37829800000000	40.90591100000000	798.51825299999996	59.92473100000000	0.26237800000000	0.00000000000000	0.11759300000000	0.00000000000000	0.00000000000000	0.00000000000000	0.00000000000000	0.00000000000000	0.00000000000000	0.00000000000000	20.66112000000000	0.00000000000000	0.00000000000000	0.00000000000000	0.00000000000000	
8.37997000000000	40.37366200000000	799.76166699999999	59.85196600000000	0.26171300000000	0.00000000000000	0.11757300000000	0.00000000000000	0.00000000000000	0.00000000000000	0.00000000000000	0.00000000000000	0.00000000000000	0.00000000000000	20.64146200000000	0.00000000000000	0.00000000000000	0.00000000000000	0.00000000000000	
8.38163700000000	39.85133000000000	800.84998900000005	59.76565200000000	0.26106300000000	0.00000000000000	0.11755300000000	0.00000000000000	0.00000000000000	0.00000000000000	0.00000000000000	0.00000000000000	0.00000000000000	0.00000000000000	20.61462700000000	0.00000000000000	0.00000000000000	0.00000000000000	0.00000000000000	
